# xmcd
#
# Track frame offsets: 
#        150
#        17410
#        36648
#        54137
#        69026
#        90823
#        110256
#        135406
#        151262
#        165854
#        189059
#        212189
#
# Disc length: 2878 seconds
#
# Revision: 0
# Processed by: cddbd v1.5.2PL0 Copyright (c) Steve Scherf et al.
# Submitted via: ExactAudioCopyFreeDBPlugin 1.0
#
DISCID=7d0b3c0c
DTITLE=Seasick Steve - Hubcap Music
DYEAR=2013
DGENRE=Blues
TTITLE0=Down On The Farm
TTITLE1=Self Sufficient Man
TTITLE2=Keep On Keepin' On
TTITLE3=Over You
TTITLE4=The Way I Do
TTITLE5=Purple Shadows
TTITLE6=Freedom Road
TTITLE7=Home
TTITLE8=Hope
TTITLE9=Heavy Weight
TTITLE10=Coast Is Clear
TTITLE11=Tractor
EXTD=
EXTT0=
EXTT1=
EXTT2=
EXTT3=
EXTT4=
EXTT5=
EXTT6=
EXTT7=
EXTT8=
EXTT9=
EXTT10=
EXTT11=
PLAYORDER=
